<?xml version="1.0" encoding="UTF-8"?>
<svg id="_레이어_1" data-name="레이어 1" xmlns="http://www.w3.org/2000/svg" viewBox="0 0 300 300">
  <path d="M134.32,70.84s-5.3,9.22-5.57,16.91c1.67-.37,14.26-4.63,26.57-2.26l-21-14.65Z" style="fill: #d52e30;"/>
  <path d="M150,0C67.16,0,0,67.16,0,150c0,7.88,.61,15.62,1.78,23.17C-2.74,117.89,23.15,84.54,23.15,84.54h0C46.38,42.31,92.99,13.47,146.7,13.47c76.92,0,139.27,59.13,139.27,132.07,0,43.71-22.39,82.45-56.89,106.49v-.12c-55.47,2.23-67.45-43.76-67.45-43.76-22.57-.56-41.53,32.05-41.53,32.05,25.39-62.53,69.22-46.94,82.32-40.52,2.86,1.4,6.12,1.76,9.21,.97,20-5.11,28.04-19.53,28.04-19.53l10-20.72c1.12-2.32,1.7-4.87,1.7-7.44v-1.23c0-4.18-2.33-8.02-6.05-9.93-12.9-6.65-41.95-21.89-42.16-24.49-.15-1.8-2.87-7.54-5.36-12.48-2.76-5.47-7.61-9.62-13.48-11.37-27.92-8.31-55.85-.14-55.85-.14l-30.66-16.7c-13.66,34.84,15.33,59.92,15.33,59.92-26.75-10.03-27.87-27.03-27.87-27.03C19.77,147.95,16.06,220.72,16.06,220.72h0c25.16,47.17,74.85,79.28,132.04,79.28,.41,0,.83,0,1.24-.01,.22,0,.44,.01,.67,.01,82.84,0,150-67.16,150-150S232.84,0,150,0Zm24.08,116.04l23.22,16.39s-26.75,3.81-23.22-16.39Z" style="fill: #d52e30;"/>
</svg>